<?xml version="1.0" encoding="utf-8"?>
<!-- Generator: Adobe Illustrator 18.1.1, SVG Export Plug-In . SVG Version: 6.00 Build 0)  -->
<svg version="1.1"
	 id="svg3178" xmlns:dc="http://purl.org/dc/elements/1.1/" xmlns:cc="http://creativecommons.org/ns#" xmlns:rdf="http://www.w3.org/1999/02/22-rdf-syntax-ns#" xmlns:svg="http://www.w3.org/2000/svg" xmlns:sodipodi="http://sodipodi.sourceforge.net/DTD/sodipodi-0.dtd" xmlns:inkscape="http://www.inkscape.org/namespaces/inkscape" inkscape:export-xdpi="90" inkscape:export-filename="/home/tudor/Documents/svg/pplane.png" sodipodi:docname="pplane.svg" inkscape:version="0.48.4 r9939" inkscape:export-ydpi="90"
	 xmlns="http://www.w3.org/2000/svg" xmlns:xlink="http://www.w3.org/1999/xlink" x="0px" y="0px" viewBox="-697.4 494.7 454.5 357"
	 enable-background="new -697.4 494.7 454.5 357" xml:space="preserve">
<sodipodi:namedview  showgrid="false" inkscape:cy="629.65098" inkscape:cx="45.703799" inkscape:zoom="0.57035974" borderopacity="1.0" bordercolor="#666666" pagecolor="#ffffff" id="base" inkscape:window-maximized="1" inkscape:window-y="24" inkscape:window-x="45" inkscape:window-height="744" inkscape:window-width="1321" inkscape:pageshadow="2" inkscape:current-layer="layer1" inkscape:pageopacity="0.0" inkscape:document-units="px">
	</sodipodi:namedview>
<g id="layer2" inkscape:label="photograph" inkscape:groupmode="layer" display="none">
</g>
<g id="layer1" inkscape:label="Layer 1" inkscape:groupmode="layer">
	<path id="path3254" inkscape:connector-curvature="0" fill="#FCFCFC" fill-opacity="0" d="M-817.9,689V318.7h370.3h370.3V689v370.3
		h-370.3h-370.3V689L-817.9,689z"/>
	<g id="g4220" transform="translate(-14.026235,-21.039353)">
		<path id="path3250" inkscape:connector-curvature="0" fill="#ECECEC" d="M-499.3,812.3c20.5-21.1,38.1-38.3,39.1-38.3
			s19.9,6.8,42,15.2c22.1,8.4,40.3,15,40.5,14.8c0.9-1.2,133.8-260.4,133.8-260.9c0-1.4-6.5,0.8-65.4,22.4
			c-34.4,12.7-127.7,46.9-207.3,76.1c-79.6,29.2-145.6,53.6-146.8,54.3c-1.7,1-1.5,1.5,1.4,2.6c86.6,32.3,105.4,39.9,106.1,42.8
			c0.4,1.7,4.5,27,9.1,56.2c4.6,29.2,8.8,53.2,9.2,53.2C-537,850.6-519.8,833.4-499.3,812.3L-499.3,812.3z"/>
		
			<linearGradient id="path3302_1_" gradientUnits="userSpaceOnUse" x1="-479.4482" y1="1035.765" x2="-231.4417" y2="1035.765" gradientTransform="matrix(1 0 0 -1 -14.0262 1708.3149)">
			<stop  offset="0" style="stop-color:#F9F9F9"/>
			<stop  offset="1" style="stop-color:#F9F9F9;stop-opacity:0"/>
		</linearGradient>
		<path id="path3302" inkscape:connector-curvature="0" fill="url(#path3302_1_)" d="M-359.1,766c10.1-19.7,39.8-77.7,66.2-128.9
			c26.4-51.2,47.7-93.4,47.5-93.6c-0.2-0.2-19.3,16-42.4,36c-62.6,54.4-98.2,85.2-154.5,133.9c-27.9,24.2-50.9,44.3-51.1,44.8
			c-0.2,0.5,9.9,4.7,22.4,9.3c12.5,4.6,37.7,14.1,56,21.2c18.3,7,34.2,12.9,35.4,12.9C-378.2,801.7-371.2,789.5-359.1,766
			L-359.1,766z"/>
		
			<linearGradient id="path3252_1_" gradientUnits="userSpaceOnUse" x1="-649.5333" y1="1067.8374" x2="-236.3258" y2="1067.8374" gradientTransform="matrix(1 0 0 -1 -14.0262 1708.3149)">
			<stop  offset="0" style="stop-color:#F2F2F2"/>
			<stop  offset="1" style="stop-color:#F2F2F2;stop-opacity:0"/>
		</linearGradient>
		<path id="path3252" inkscape:connector-curvature="0" fill="url(#path3252_1_)" d="M-503,703.3c60.6-38.1,92.5-58.1,165.4-104
			c28.2-17.8,59.2-37.1,68.7-43.1s17.9-11.3,18.6-11.9s-20.8,7-47.7,16.9c-26.9,9.9-56.8,20.8-66.3,24.3s-30,11-45.6,16.7
			s-37.6,13.8-49.2,18c-19,7-75.2,27.6-148.3,54.5c-15.1,5.6-34.2,12.5-42.4,15.4c-8.2,2.9-14.4,5.5-13.7,5.7
			c1.1,0.4,106.5,40.6,107,40.8C-556.4,736.7-532.3,721.7-503,703.3L-503,703.3z"/>
		
			<linearGradient id="path3336_1_" gradientUnits="userSpaceOnUse" x1="-523.5724" y1="904.0901" x2="-445.7706" y2="904.0901" gradientTransform="matrix(1 0 0 -1 -14.0262 1708.3149)">
			<stop  offset="0" style="stop-color:#E6E6E6"/>
			<stop  offset="1" style="stop-color:#E6E6E6;stop-opacity:0"/>
		</linearGradient>
		<path id="path3336" inkscape:connector-curvature="0" fill="url(#path3336_1_)" d="M-492,758l-45.6,92.5v-0.9l77.8-76.3L-492,758z
			"/>
	</g>
</g>
</svg>
